<svg viewBox="0 0 300 300" fill="none" xmlns="http://www.w3.org/2000/svg" data-gradient="accentBackground" style="width: 80px; height: 80px;"><path fill-rule="evenodd" clip-rule="evenodd" d="M150 300C232.843 300 300 232.843 300 150C300 67.1573 232.843 0 150 0C67.1573 0 0 67.1573 0 150C0 232.843 67.1573 300 150 300ZM145.014 115.743C145.014 131.338 157.677 144.001 173.272 144.001L175.137 144C198.272 143.948 217.039 125.148 217.039 102.001C217.039 78.82 198.219 60 175.038 60H80V62.7288L84.9099 64.638C88.5464 65.9096 91.0455 67.6368 92.4089 69.818C93.7724 72.001 94.4541 74.9999 94.4541 78.8183V221.182C94.4541 224.818 93.7724 227.727 92.4089 229.91C91.0455 232.091 88.5464 233.909 84.9099 235.364L80 237.273V240H175.038C201.043 240 222.155 218.888 222.155 192.883C222.155 166.878 201.043 145.767 175.038 145.767H173.272C157.973 145.767 145.496 157.952 145.059 173.143H143.203C142.765 157.952 130.289 145.767 114.989 145.767V144.001C130.586 144.001 143.247 131.338 143.247 115.743L143.203 114.86H145.059L145.014 115.743Z" fill="currentColor"></path></svg>